<svg version="1" xmlns="http://www.w3.org/2000/svg" width="768" height="768" viewBox="0 0 576.000000 576.000000"><path d="M557 18.1c-3 1.1-6.2 2.2-7 2.4-.8.2-3.5 1-6 1.8-2.5.9-10.6 3.4-18 5.7-7.4 2.3-13.9 4.3-14.5 4.4-.5.2-1.2.3-1.5.3-.3 0-1.5.5-2.8 1.2-1.3.7-3.1 1.4-4 1.6-1.7.3-38.7 12-47.7 15.1-2.7.9-5.4 1.7-6 1.9-2.4.4-16.6 4.9-23 7.2-3.8 1.4-7.9 2.7-9.1 2.9-1.2.2-4.1 1.1-6.5 2-2.4.8-5.1 1.7-5.9 1.9-.8.2-3.4 1-5.8 1.9-2.3.8-4.3 1.5-4.5 1.5-.1 0-.9.2-1.7.5-.8.2-4 1.2-7 2.1-3 .9-6.2 1.9-7 2.2-.8.3-1.9.7-2.5.8-.5.2-6.6 2.1-13.5 4.3-31.8 10.3-44.6 14.4-45.5 14.6-.5.1-2.6.7-4.5 1.3-1.9.7-12.3 3.9-23 7.3s-21.3 6.8-23.5 7.5c-2.2.8-11.4 3.7-20.5 6.6-9.1 2.8-19.9 6.2-24 7.6-4.1 1.3-8.2 2.6-9 2.8-.8.2-7.1 2.2-14 4.5-15.6 5.1-35.2 11.3-36.5 11.6-1.4.3-21.4 6.7-31 9.9-4.4 1.4-8.7 2.8-9.5 3-.8.2-4.2 1.2-7.5 2.3-3.3 1.2-14.1 4.6-24 7.7-9.9 3.2-19.4 6.4-21.1 7.2-3.8 1.7-5.2 4.6-4.9 9.7.2 4.1.6 4.5 12.5 14.6 3.6 3 6.7 5.7 7 6 .3.3 6.4 5.5 13.5 11.5 7.2 6 14.8 12.5 17 14.4 2.2 2 6.5 5.6 9.4 8.1 8.3 6.9 28.2 23.9 31.8 27.1 1.8 1.6 3.4 2.9 3.7 2.9.2 0 2 1.5 3.8 3.2 1.9 1.8 5.6 5.1 8.3 7.3 2.7 2.2 6.5 5.4 8.4 7.1 2 1.8 7.2 6.2 11.6 9.9 7.1 5.9 10.7 8.9 19.5 16.5 1.4 1.2 4.7 4 7.4 6.3 8 6.7 26 22.1 27.2 23.2.6.5 3.1 2.6 5.5 4.7 2.4 2 5.5 4.6 6.9 5.8 1.4 1.2 4.5 3.8 6.9 5.8 2.4 2.1 4.9 4.2 5.5 4.7.6.6 7 6 14.1 12 7.2 6 13.2 11.2 13.5 11.5 2.8 3 33.4 28.2 35.3 29.1 4 1.8 9.1.3 12-3.4 3.8-5.1 2.1-11.3-4.6-16.4-2.3-1.8-5.6-4.5-7.3-6-1.7-1.6-5.3-4.7-8-7s-5.9-5-7-6c-1.2-1-4.3-3.6-7-5.8-2.6-2.2-5.2-4.5-5.8-5-.6-.6-3.8-3.3-7.1-6-3.3-2.8-6.5-5.5-7.1-6-.6-.6-3.2-2.8-5.9-5-2.6-2.2-5.3-4.5-5.9-5-.6-.6-5.6-4.8-11.1-9.5s-10.5-8.9-11.1-9.5c-.6-.5-3.3-2.8-5.9-5-2.7-2.2-5.3-4.5-6-5-1.1-1-10.9-9.4-15.5-13.2-1.4-1.2-7.9-6.8-14.6-12.5-6.7-5.6-17.7-15-24.5-20.8-6.8-5.8-12.5-10.8-12.7-11.2-.2-.5-1-.8-1.8-.8s-1.4-.4-1.4-.9c0-.4-3.3-3.5-7.2-6.9-4-3.3-8.4-7-9.8-8.2-1.4-1.2-4.5-3.8-6.9-5.8-2.4-2.1-4.9-4.2-5.5-4.7-.6-.6-4-3.5-7.6-6.5-3.6-3-7-6-7.6-6.5-.6-.6-3-2.6-5.4-4.5-2.4-1.9-4.8-4-5.4-4.5-.6-.6-5.8-5-11.6-9.9s-11.1-9.5-11.8-10.1c-1.1-1-.4-1.5 3.5-2.8 2.6-.8 13.6-4.3 24.3-7.7 10.7-3.3 21.1-6.6 23-7.3 1.9-.6 3.7-1.2 4-1.2.3 0 3.4-1 7-2.2 7.1-2.4 42.2-13.6 43-13.8.3-.1 3.2-1 6.5-2 3.3-1.1 6.2-1.9 6.5-2 .7-.2 35.7-11.4 41-13.2 2.5-.8 5-1.6 5.5-1.7.6-.1 8.4-2.6 17.5-5.5s24.4-7.7 34-10.8c9.6-3 20.1-6.4 23.2-7.4 3.1-1.1 6.5-2.2 7.5-2.4 1-.2 6.5-1.9 12.3-3.8 5.8-1.9 13.4-4.3 17-5.5 31.4-9.8 65.8-20.7 71.5-22.7 3.8-1.3 21.4-6.8 22.5-7 .5-.1 21.1-6.7 46-14.7 5.2-1.7 10-3.1 10.5-3.2.6-.1 4.2-1.2 8-2.5 8.9-2.9 9.4-3 10-3.1.3 0 2.9-.9 5.7-1.9 2.9-1.1 8.7-2.9 12.8-4.2 14.5-4.3 17.9-7.3 16.5-14.5-1.3-7.4-8.6-9.9-18.5-6.3z"/><path d="M538.5 80.7c-2.4.6-40.9 13.6-44.5 15.1-1.4.5-2.9 1.1-3.5 1.2-1.6.4-2.1.6-21.5 7-10.2 3.4-19.2 6.4-20 6.7-.8.3-1.9.7-2.5.9-.9.2-112.9 38.1-126 42.6-3.3 1.1-6.4 2.1-7 2.3-.5.1-1.7.5-2.5.8-.8.3-5.5 1.9-10.5 3.6-24.1 8-86.9 29.3-91.6 31.1-6.8 2.5-9.4 6.2-8.4 12 .5 2.8 1.5 4.6 3.6 6.1 3 2.1 8.7 2.8 11.1 1.3.7-.5 1.5-.9 1.8-.9.3-.1 5-1.6 10.5-3.5s10.2-3.5 10.5-3.5c.3 0 3.7-1.2 7.5-2.5 3.9-1.3 7.2-2.5 7.5-2.5.3 0 3-.9 6-2 3-1 6-2 6.5-2.2.6-.1 15-5 32-10.8 17.1-5.9 31.7-10.8 32.5-11 1.5-.3 39.1-13.1 42-14.2.8-.3 2-.7 2.5-.9 1.1-.3 28.2-9.3 30.5-10.2.8-.3 1.7-.6 2-.7.3-.1 1.2-.4 2-.8.8-.3 11.9-4 24.5-8.3 38.4-12.8 89.9-30.2 91.8-31 1.5-.5 1.7-.2 1.3 1.7-.5 2.8-3 12-4.6 16.9-.6 1.9-1.3 4.6-1.6 6-.5 2.2-5.3 20-8.9 32.5-.7 2.7-3 11.1-5 18.5s-5 18.2-6.6 24c-1.6 5.8-3.1 11.4-3.4 12.5-.4 2.2-2.9 11.3-10 36.5-2.5 9.1-4.8 17.4-5 18.5-.3 1.1-1.6 6-3 11-1.4 4.9-2.7 9.7-2.9 10.5-.2.8-.9 3.5-1.6 6-.7 2.5-1.3 4.9-1.4 5.5-.1.5-1 3.7-2 7s-2 6.9-2.2 8c-.2 1.1-2.9 11-5.9 22-3.1 11-5.8 20.7-6 21.5-.1.8-1 4-1.8 7-2.6 9.1-9.7 35-11.8 43-1.1 4.1-2.9 10.6-4 14.5-1.1 3.8-2.2 7.8-2.4 8.7-.5 2.1-4.3 16.3-5.6 20.3-1.4 4.9-15.8 57.7-18.4 68-.9 3.5-.7 2.7-3.8 13.5-3.4 12.1-2.3 17.2 4.4 19.1 7.2 2.2 11.7-1.3 14.3-11.1.8-3 2.9-10.7 4.6-17 1.7-6.3 3.3-12.2 3.5-13 .2-.8 1.2-4.2 2.1-7.5.9-3.3 1.8-6.7 1.9-7.5.2-.8.4-1.5.5-1.5.1 0 .3-.7.5-1.5s1.6-5.8 3-11 2.7-10.2 2.9-11c.2-.8 2.7-10 5.6-20.4 2.8-10.4 5.3-19.6 5.6-20.5.2-.9 1.1-4.1 1.9-7.1.9-3 1.8-6.2 2-7 2.9-11 8.4-30.8 8.9-32 .3-.8.8-2.6 1-4 .3-1.4 1.4-5.7 2.5-9.5 2.6-9.4 10.1-36.6 10.5-38.5.2-.8 1.1-4.2 2.1-7.5.9-3.3 2.1-7.8 2.6-10s1.2-4.7 1.6-5.5c.3-.8.7-2 .8-2.5.9-3.8 8.8-33.3 9.2-34.5.3-.8.7-2 .8-2.5.1-.6 1.5-5.5 3-11s2.9-10.7 3.1-11.5c.2-.8 1.2-4.7 2.3-8.5 4-14.5 11.2-41 17.6-64.5 2-7.4 3.8-14.2 4-15 7.3-26.3 14.2-51.3 15-54.5.1-.6.5-1.7.8-2.5.3-.8 1.5-5.2 2.6-9.7 2.8-10.7 2.2-14.6-2.8-17.6-2.9-1.7-4.8-1.9-8.6-1z"/><path d="M450 168.7c-3.3 1.2-5.8 5.6-8 14-1.2 4.8-4 15.5-6.2 23.7s-4.1 15.8-4.4 16.9c-.2 1.1-.8 3.4-1.3 5.1-.6 1.7-2.6 9.4-4.6 17.1-8.2 31.4-9.5 36.3-11.5 44-1.2 4.4-2.3 8.8-2.5 9.7-.2 1-2.5 9.6-5 19-2.6 9.5-4.8 18.1-5 19.1-.2 1-.7 2.7-1 3.7-.3 1-.8 2.7-1 3.7-.2 1-.8 3.3-1.4 5.1-.5 1.8-1 3.3-1 3.5 0 .1-.2.9-.4 1.7-.6 1.8-3.6 13.6-4.2 16.5-.2 1.1-1.4 5.4-2.5 9.5s-2.2 8.2-2.4 9c-.2.8-1.4 5.3-2.6 10-1.2 4.7-2.4 9.2-2.5 10-.2.8-.4 1.5-.5 1.5-.2 0-.4 1.1-1.3 5-.3 1.1-1.3 4.9-2.2 8.5-.9 3.6-1.9 7.2-2.1 8-.2.8-2.6 10-5.4 20.5-2.8 10.4-5.2 19.7-5.4 20.5-.2.8-.9 3.5-1.6 6-.7 2.5-1.4 5.6-1.7 7-.5 3.1-.8 3.4-2.6 2.3-1.4-.8-9.9-8.2-17.6-15.3-2.1-1.9-6.2-5.6-9.2-8.1-3-2.6-6.6-5.7-8-7-1.4-1.3-5.9-5.3-9.9-8.9-4-3.6-7.8-7-8.4-7.5-.6-.6-4.2-3.7-8.1-7-3.8-3.3-7.6-6.7-8.5-7.5-.9-.8-4.6-4.2-8.4-7.5-3.7-3.3-7.8-6.9-9.1-8-1.2-1.1-5.3-4.7-9.1-8.1-22.9-20.3-28.3-25-31.4-27.8-15-13.3-19.9-17.6-22.9-20.2-1.9-1.6-4.2-3.6-5.1-4.4-.8-.8-5.2-4.7-9.5-8.5-4.4-3.9-8.2-7.2-8.5-7.5-.3-.3-4.1-3.6-8.5-7.5-4.4-3.8-9.2-8.1-10.6-9.5-1.5-1.4-4.8-4.3-7.4-6.5-2.6-2.2-6.1-5.3-7.8-6.8-1.8-1.6-5.6-5-8.6-7.5-3-2.6-6.3-5.6-7.4-6.6-2.2-2.1-16.2-14.5-27.2-24.1-3.8-3.3-7.8-6.9-9-8-1.1-1.1-5.4-4.9-9.5-8.5-4.1-3.6-7.7-6.7-8-7-.3-.3-4.3-3.9-9-8s-9.2-8.1-10.1-9c-.9-.8-3.7-3.3-6.4-5.5-2.6-2.2-5.7-4.9-6.9-6.1-1.1-1.1-5.7-5.2-10.1-9-4.4-3.8-8.4-7.4-9-8-4.7-5.1-15.6-13.3-18.3-13.9C5.1 183-1 189 .4 196.3c.5 2.8 2.3 5 8.9 10.9 4.5 4 8.7 7.7 9.3 8.3.6.5 4.4 3.9 8.5 7.5 4 3.6 9.6 8.5 12.4 11 2.8 2.5 8.2 7.2 12 10.5 3.8 3.3 7.8 6.9 9 8 1.1 1.1 5.4 4.9 9.5 8.5 4.1 3.6 7.7 6.7 8 7 .3.3 4.3 3.9 9 8s9.2 8.1 10.1 9c.9.8 4 3.5 6.9 6 2.9 2.5 6 5.2 6.9 6 .9.9 5.4 4.9 10.1 9 4.7 4.1 8.7 7.7 9 8 .3.3 4.3 3.9 9 7.9 4.7 4.1 9 8 9.5 8.5.6.6 4.2 3.8 8 7.1 3.9 3.3 8.8 7.6 11 9.6 6.2 5.6 9.1 8.2 11.6 10.4 5.7 4.9 19.4 17 19.9 17.5.3.3 4.3 3.9 9 8s9 7.9 9.6 8.5c.9.8 6.6 5.9 16.8 14.8 1.2 1.1 4.5 4 7.5 6.5 2.9 2.6 7 6.2 9 8 2 1.9 6 5.5 9 8 3 2.6 6.7 5.8 8.1 7.2 1.5 1.4 5.6 5.1 9.2 8.2 6.9 6.2 7.6 6.7 16.3 14.3 3.2 2.7 7.7 6.9 10.1 9.1 2.4 2.3 4.4 4 4.4 3.8 0-.2 1 .7 2.3 1.9 1.3 1.2 4.1 3.8 6.3 5.7 12.6 11.1 21.3 18.9 24.4 21.7 1.9 1.7 4.6 4.1 6 5.3 1.4 1.2 4.9 4.2 7.9 6.8 7.7 6.7 8.3 7 12.4 6.9 5.2-.1 8.3-3.7 10.6-12.3 1.8-6.2 10.8-40.7 11.7-44.4.2-.8 1.1-4.2 2-7.5.9-3.3 1.8-6.7 2-7.5.2-.8 2.8-11 5.9-22.5 3-11.6 5.7-21.9 5.9-23 .3-1.1 1.6-6.2 3-11.2 1.4-5.1 2.8-10.3 3.1-11.5.2-1.3 3.2-12.7 6.5-25.3 3.4-12.7 8.6-32.5 11.6-44 3-11.6 6.2-23.5 7-26.5.9-3 1.7-6.2 1.9-7 .2-.8 1.3-5.1 2.4-9.5 2.9-10.7 3.1-11.6 3.7-14.2.2-1.2.8-3.3 1.3-4.5.5-1.3.9-2.6 1-3.1 0-.4.1-.8.2-1 0-.1.2-.9.4-1.7.5-2.1 2.5-10.2 3-12 .2-.8 1.5-5.8 2.9-11s3.5-13.1 4.7-17.5c1.1-4.4 2.2-8.7 2.4-9.5.2-.8.8-3.5 1.5-6 2.7-9.9 2.1-14.2-2.2-16.9-2.5-1.6-7.5-2.3-9.8-1.4z"/></svg>