<?xml version="1.0" encoding="utf-8"?>
<!-- Generator: Adobe Illustrator 22.0.1, SVG Export Plug-In . SVG Version: 6.00 Build 0)  -->
<svg version="1.1" id="Layer_1" xmlns="http://www.w3.org/2000/svg" xmlns:xlink="http://www.w3.org/1999/xlink" x="0px" y="0px"
	 viewBox="0 0 26 26" style="enable-background:new 0 0 26 26;" xml:space="preserve">
<style type="text/css">
	.st0{fill:#FFFFFF;}
</style>
<path id="Facebook" class="st0" d="M26,24.6c0,0.8-0.6,1.4-1.4,1.4h-6.6V15.9h3.4l0.5-3.9h-3.9V9.5c0-1.1,0.3-1.9,1.9-1.9l2.1,0V4.1
	c-0.4,0-1.6-0.2-3-0.2c-3,0-5,1.8-5,5.2V12h-3.4v3.9h3.4V26H1.5C0.7,26,0,25.4,0,24.6V1.5C0,0.7,0.7,0,1.5,0h23.1
	C25.4,0,26,0.7,26,1.5V24.6z"/>
</svg>
