<?xml version="1.0" encoding="utf-8"?>
<!-- Generator: Adobe Illustrator 22.0.1, SVG Export Plug-In . SVG Version: 6.00 Build 0)  -->
<svg version="1.1" id="Layer_1" xmlns="http://www.w3.org/2000/svg" xmlns:xlink="http://www.w3.org/1999/xlink" x="0px" y="0px"
	 viewBox="0 0 26 26" style="enable-background:new 0 0 26 26;" xml:space="preserve">
<style type="text/css">
	.st0{filter:url(#Adobe_OpacityMaskFilter);}
	.st1{fill:#FFFFFF;}
	.st2{mask:url(#mask-2_1_);fill:#FFFFFF;}
</style>
<title>Instagram Icon</title>
<desc>Created with Sketch.</desc>
<g id="Page-1">
	<g id="Landing-Page" transform="translate(-698.000000, -6790.000000)">
		<g id="Section-6" transform="translate(-1.000000, 6507.000000)">
			<g id="Instagram-Icon" transform="translate(699.000000, 283.000000)">
				<g id="Clip-2">
				</g>
				<defs>
					<filter id="Adobe_OpacityMaskFilter" filterUnits="userSpaceOnUse" x="0" y="0" width="26" height="26">
						<feColorMatrix  type="matrix" values="1 0 0 0 0  0 1 0 0 0  0 0 1 0 0  0 0 0 1 0"/>
					</filter>
				</defs>
				<mask maskUnits="userSpaceOnUse" x="0" y="0" width="26" height="26" id="mask-2_1_">
					<g class="st0">
						<polygon id="path-1_1_" class="st1" points="0,26 26,26 26,0 0,0 						"/>
					</g>
				</mask>
				<path id="Fill-1" class="st2" d="M23.6,22.7c0,0.4-0.4,0.8-0.8,0.8H3.2c-0.4,0-0.8-0.4-0.8-0.8V10.6h3.2
					c-0.4,0.6-0.6,1.7-0.6,2.5c0,4.4,3.5,7.9,7.9,7.9c4.4,0,7.9-3.5,7.9-7.9c0-0.7-0.1-1.8-0.6-2.5h3.2V22.7z M13,8c2.8,0,5,2.2,5,5
					s-2.2,5-5,5c-2.8,0-5-2.2-5-5S10.3,8,13,8L13,8z M18.7,4.1c0-0.4,0.4-0.8,0.8-0.8h2.4c0.4,0,0.8,0.4,0.8,0.8v2.4
					c0,0.4-0.4,0.8-0.8,0.8h-2.4c-0.4,0-0.8-0.4-0.8-0.8V4.1z M22.9,0H3.1C1.4,0,0,1.4,0,3.1v19.8C0,24.6,1.4,26,3.1,26h19.8
					c1.7,0,3.1-1.4,3.1-3.1V3.1C26,1.4,24.6,0,22.9,0L22.9,0z"/>
			</g>
		</g>
	</g>
</g>
</svg>
